<?xml version="1.0" encoding="UTF-8" standalone="no"?>
<!DOCTYPE svg PUBLIC "-//W3C//DTD SVG 1.1//EN" "http://www.w3.org/Graphics/SVG/1.1/DTD/svg11.dtd">
<svg width="100%" height="100%" viewBox="0 0 1920 1080" version="1.1" xmlns="http://www.w3.org/2000/svg" xmlns:xlink="http://www.w3.org/1999/xlink" xml:space="preserve" xmlns:serif="http://www.serif.com/" style="fill-rule:evenodd;clip-rule:evenodd;stroke-linejoin:round;stroke-miterlimit:2;">
    <path d="M823.023,477.316C872.395,495.83 921.077,518.981 966.965,544.643C989.95,557.497 1009.37,577.145 1033.13,588.755C1073.1,608.279 1108.74,635.383 1149.21,654.921C1196.1,677.556 1247.73,693.742 1292,718.767C1311.24,729.644 1329.95,743.576 1351.2,752.43C1424.21,782.853 1479.01,784.933 1558.98,784.933C1577.87,784.933 1596.79,789.173 1615.87,784.933C1643.21,778.856 1670.15,769.244 1699.44,767.521C1752.61,764.394 1805.43,755.796 1853.83,739.661C1861.7,737.04 1871.56,741.103 1879.37,738.501C1886.73,736.049 1892.64,727.347 1899.11,725.732C1926.73,718.826 1961.94,726.566 1980.36,702.515C1986.89,694 2006.95,574.315 2010.54,552.769C2011.52,546.89 2017.52,542.669 2019.83,536.518C2023.95,525.545 2022.8,511.058 2024.47,499.371C2025.63,491.302 2036.21,486.078 2038.4,477.316C2049.72,432.071 2047.71,383.656 2025.63,342.66C1993.42,282.841 1915.19,262.115 1865.44,226.578C1843.43,210.858 1827.76,187.141 1805.08,172.019C1760.96,142.608 1710.95,119.746 1659.98,101.209C1637.33,92.974 1620.46,74.636 1598.45,66.385C1522.07,37.74 1426.15,13.197 1344.23,35.042C1314.72,42.913 1188.12,107 1161.98,130.23C1132.49,156.449 1115.99,186.964 1086.53,208.005C1047.79,235.675 914.188,328.34 899.637,364.716C888.456,392.67 871.778,408.012 871.778,445.973C871.778,446.559 870.786,455.113 870.617,455.26C866.923,458.472 860.169,485.717 860.169,491.245" style="fill:rgb(245,110,105);"/>
    <path d="M863.78,445.664L862.964,452.389C861.712,454.475 860.349,457.363 859.166,460.803C857.128,466.731 855.125,474.488 853.79,480.823C844.502,477 835.179,473.33 825.832,469.825C821.698,468.275 817.083,470.372 815.532,474.507C813.982,478.641 816.08,483.256 820.214,484.806C869.211,503.18 917.521,526.158 963.06,551.626C986.173,564.551 1005.73,584.269 1029.62,595.943C1069.6,615.473 1105.25,642.582 1145.74,662.126C1192.47,684.685 1243.94,700.788 1288.06,725.731C1307.57,736.761 1326.57,750.836 1348.12,759.815C1422.22,790.691 1477.82,792.933 1558.98,792.933C1578.44,792.933 1597.94,797.112 1617.6,792.743C1644.54,786.757 1671.06,777.204 1699.91,775.507C1753.79,772.338 1807.31,763.601 1856.36,747.251C1860.14,745.991 1864.5,746.975 1868.74,747.26C1873.33,747.57 1877.83,747.449 1881.9,746.09C1886.48,744.565 1890.72,741.276 1894.71,737.937C1896.9,736.099 1898.83,734.046 1901.05,733.493C1914.58,730.11 1929.97,730.378 1944.24,728.483C1960.95,726.263 1976.14,721.182 1986.71,707.38C1988.26,705.359 1990.89,698.202 1993.44,687.612C2002.07,651.774 2015.55,571.394 2018.43,554.084C2018.82,551.764 2020.73,550.033 2022.26,547.987C2024.25,545.315 2026.13,542.499 2027.32,539.327C2031.63,527.85 2030.65,512.726 2032.39,500.503C2032.61,499.003 2033.68,497.821 2034.73,496.548C2036.04,494.96 2037.52,493.406 2038.92,491.794C2042.18,488.047 2044.99,483.978 2046.16,479.256C2057.96,432.08 2055.7,381.614 2032.68,338.867C2015.86,307.641 1987.21,286.428 1956.1,268.575C1926.53,251.61 1894.77,237.695 1870.09,220.068C1848.01,204.299 1832.27,180.532 1809.52,165.363C1764.88,135.604 1714.29,112.447 1662.71,93.691C1652.01,89.802 1642.72,83.459 1633.46,77.182C1623.14,70.179 1612.86,63.242 1601.26,58.894C1523.42,29.705 1425.65,5.052 1342.17,27.312C1312.12,35.325 1183.27,100.604 1156.67,124.25C1127.4,150.266 1111.11,180.618 1081.88,201.495C1054.64,220.952 980.714,272.418 933.79,314.071C912.542,332.933 896.843,350.162 892.209,361.745C880.668,390.599 863.865,406.604 863.78,445.664ZM1973.79,697.936C1974.08,697.077 1976.31,690.425 1977.88,683.867C1986.44,648.329 1999.79,568.618 2002.65,551.454C2003.24,547.938 2004.87,544.748 2007.03,541.682C2008.81,539.14 2011.2,536.758 2012.34,533.709C2016.27,523.239 2014.96,509.391 2016.55,498.24C2017.22,493.562 2019.78,489.387 2023.17,485.436C2025.89,482.268 2029.62,479.449 2030.64,475.375C2041.47,432.063 2039.72,385.699 2018.59,346.453C2003.19,317.86 1976.63,298.801 1948.13,282.452C1918.09,265.215 1885.87,250.998 1860.79,233.088C1838.85,217.417 1823.25,193.75 1800.64,178.676C1757.05,149.612 1707.62,127.045 1657.24,108.728C1645.29,104.382 1634.83,97.438 1624.48,90.424C1615.21,84.136 1606.05,77.779 1595.64,73.875C1520.71,45.774 1426.66,21.341 1346.29,42.772C1317.31,50.502 1192.96,113.397 1167.3,136.209C1137.57,162.633 1120.87,193.31 1091.18,214.515C1064.19,233.795 990.91,284.763 944.412,326.037C925.622,342.717 911.162,357.444 907.065,367.687C902.493,379.118 897.041,388.497 892.121,398.107C885.412,411.214 879.778,424.802 879.778,445.973C879.778,446.587 878.881,454.725 878.55,456.471C878.118,458.748 877.091,460.097 876.423,460.778L876.417,460.789C873.714,465.646 870.021,479.55 868.683,487.096C903.658,502.154 937.977,519.266 970.87,537.661C993.727,550.444 1013.01,570.022 1036.64,581.566C1076.6,601.085 1112.23,628.184 1152.69,647.717C1199.73,670.426 1251.52,686.695 1295.93,711.803C1314.9,722.528 1333.32,736.315 1354.27,745.046C1426.2,775.015 1480.2,776.933 1558.98,776.933C1577.29,776.933 1595.63,781.234 1614.13,777.124C1641.88,770.956 1669.25,761.284 1698.97,759.535C1751.43,756.449 1803.55,747.991 1851.3,732.072C1855.4,730.705 1859.91,730.58 1864.51,730.888C1868.74,731.171 1873.09,732.162 1876.84,730.911C1880.4,729.726 1883.38,726.498 1886.44,724.008C1889.97,721.141 1893.57,718.87 1897.16,717.97C1911.26,714.448 1927.28,714.596 1942.13,712.622C1954.42,710.989 1965.94,707.958 1973.79,697.936Z" style="fill:rgb(245,110,105);"/>
    <path d="M-23.797,681.62C123.606,655.608 257.396,587.352 402.225,553.93C473.481,537.486 546.891,539.84 618.138,546.965C653.609,550.512 683.155,572.115 721.451,567.86C772.543,562.183 815.875,523.046 857.267,498.21C898.318,473.58 944.468,452.049 988.44,433.204C1000.41,428.075 1083.92,412.162 1087.11,416.953C1092.18,424.564 1134.63,434.964 1146.31,432.044C1147.99,431.625 1149.79,427.568 1149.79,426.239C1149.79,408.395 1178.43,393.737 1186.94,380.967C1215.35,338.36 1183.81,212.531 1160.24,174.341C1136.34,135.617 1108.57,93.415 1073.85,62.554C1033.66,26.832 991.332,18.134 946.651,1.378C932.594,-3.893 916.118,-15.24 902.539,-22.999C874.121,-39.238 830.94,-42.692 799.226,-52.019C781.531,-57.224 765.276,-66.436 746.989,-70.593C716.548,-77.511 686.339,-87.253 655.284,-91.487C631.381,-94.747 599.693,-91.974 577.509,-101.935C517.946,-128.679 485.598,-142.211 420.798,-153.011C405.254,-155.602 382.337,-164.788 366.241,-162.106C353.2,-159.932 180.514,-57.259 177.025,-48.537C172.536,-37.313 149.014,-1.193 141.04,7.183C116.769,32.675 84.872,49.42 60.943,73.349C35.524,98.769 -26.484,176.964 -34.244,208.005C-52.516,281.091 -47.655,350.541 -29.601,422.757C-24.025,445.061 -23.714,470.516 -13.349,491.245C-6.537,504.871 -8.79,525.82 -4.063,540C4.46,565.568 -22.268,632.808 -15.671,652.6C-13.528,659.029 1.741,665.919 1.741,674.655" style="fill:rgb(242,195,82);"/>
    <path d="M-9.281,670.762C-14.572,671.811 -19.871,672.804 -25.187,673.742C-29.535,674.509 -32.442,678.662 -31.675,683.011C-30.908,687.359 -26.755,690.266 -22.407,689.499C125.134,663.462 259.06,595.178 404.024,561.725C474.423,545.479 546.952,547.886 617.342,554.925C634.51,556.642 650.221,562.816 666.298,567.958C683.945,573.603 701.987,578.072 722.334,575.811C774.556,570.008 819.076,530.455 861.383,505.07C902.13,480.622 947.945,459.263 991.591,440.558C1001.86,436.156 1066.86,423.499 1083.01,424.076C1086.02,426.59 1090.96,429.353 1097.17,431.632C1108.24,435.69 1123.6,439.221 1134.79,440.238C1140.44,440.752 1145.19,440.57 1148.25,439.805C1150.13,439.336 1152.35,438.044 1154.11,435.772C1156.36,432.887 1157.79,428.13 1157.79,426.239C1157.79,423.336 1159.15,420.634 1160.99,417.977C1163.48,414.36 1166.92,410.932 1170.56,407.614C1179.32,399.64 1189.07,392.201 1193.6,385.405C1205.72,367.222 1208.26,334.913 1204.56,299.984C1199.21,249.553 1181.57,193.671 1167.05,170.139C1142.76,130.78 1114.45,87.943 1079.16,56.575C1038.15,20.116 995.063,10.989 949.46,-6.112C935.76,-11.25 919.743,-22.382 906.508,-29.945C877.601,-46.463 833.743,-50.206 801.483,-59.694C783.63,-64.945 767.213,-74.2 748.762,-78.394C718.094,-85.364 687.652,-95.148 656.365,-99.414C633.151,-102.58 602.331,-99.559 580.786,-109.233C520.483,-136.309 487.718,-149.968 422.113,-160.902C412.858,-162.445 400.972,-166.356 389.492,-168.654C380.755,-170.402 372.219,-171.212 364.926,-169.997C362.56,-169.602 355.445,-166.544 345.338,-161.218C309.521,-142.345 229.665,-94.921 192.366,-70.153C182.497,-63.6 175.485,-58.487 172.679,-55.778C170.865,-54.026 169.981,-52.467 169.598,-51.508C165.313,-40.796 142.857,-6.327 135.246,1.666C111.021,27.111 79.171,43.808 55.286,67.693C37.242,85.737 1.002,129.995 -21.809,165.73C-32.031,181.744 -39.537,196.19 -42.005,206.065C-60.607,280.471 -55.742,351.177 -37.362,424.697C-31.649,447.551 -31.125,473.583 -20.505,494.823C-17.495,500.843 -16.66,508.519 -15.884,516.218C-14.942,525.548 -14.183,534.937 -11.652,542.53C-10.219,546.829 -10.133,552.541 -10.609,559.044C-11.436,570.323 -14.174,583.685 -16.969,596.798C-19.903,610.562 -22.907,624.065 -24.128,634.843C-25.089,643.321 -24.849,650.363 -23.261,655.13C-22.066,658.713 -18.37,662.758 -13.855,666.671C-12.326,667.996 -10.711,669.348 -9.281,670.762ZM1141.85,424.594C1142.44,416.155 1147.51,408.059 1154.69,400.69C1163.39,391.758 1175.38,383.886 1180.28,376.53C1190.89,360.626 1191.89,332.222 1188.65,301.671C1183.58,253.886 1167.2,200.84 1153.43,178.543C1129.93,140.455 1102.68,98.888 1068.53,68.533C1029.17,33.549 987.601,25.279 943.842,8.869C929.428,3.464 912.493,-8.097 898.57,-16.053C870.64,-32.013 828.137,-35.177 796.969,-44.344C779.433,-49.502 763.338,-58.673 745.216,-62.791C715.002,-69.658 685.026,-79.358 654.203,-83.561C629.612,-86.914 597.055,-84.389 574.232,-94.637C515.41,-121.048 483.477,-134.454 419.483,-145.12C411.562,-146.44 401.759,-149.421 391.889,-151.75C383.381,-153.757 374.831,-155.375 367.737,-154.242C367.261,-154.034 359.884,-150.797 352.797,-147.063C317.306,-128.361 238.176,-81.367 201.217,-56.824C192.869,-51.281 185.495,-45.57 183.936,-44.349C178.187,-31.42 154.902,4.224 146.834,12.699C122.518,38.239 90.574,55.032 66.6,79.006C49.058,96.549 13.854,139.598 -8.323,174.339C-17.38,188.529 -24.296,201.195 -26.483,209.945C-44.425,281.712 -39.568,349.905 -21.84,420.817C-16.401,442.572 -16.304,467.448 -6.194,487.668C-2.391,495.274 -0.946,504.884 0.036,514.611C0.853,522.707 1.331,530.882 3.527,537.47C8.09,551.161 3.811,576.059 -1.321,600.134C-4.137,613.346 -7.057,626.299 -8.23,636.645C-8.854,642.153 -9.123,646.756 -8.131,649.903C-7.914,650.158 -6.547,651.746 -5.564,652.646C-3.266,654.749 -0.548,656.938 1.814,659.241C4.364,661.727 6.451,664.404 7.842,667.188C142.269,637.676 266.628,577.011 400.426,546.135C472.539,529.493 546.829,531.794 618.934,539.005C637.237,540.835 654.034,547.236 671.172,552.718C686.74,557.698 702.618,561.903 720.568,559.909C770.53,554.357 812.674,515.637 853.151,491.35C894.506,466.538 940.991,444.836 985.289,425.851C995.142,421.628 1052.09,410.171 1076.16,408.334C1082.4,407.858 1086.92,408.221 1088.92,408.9C1091.25,409.689 1092.66,410.989 1093.54,412.2C1093.95,412.437 1098.63,415.126 1102.68,416.61C1111.17,419.724 1122.49,422.492 1131.86,423.794C1135.74,424.334 1139.23,424.697 1141.85,424.594Z" style="fill:rgb(242,195,82);"/>
    <path d="M-24.958,169.698C23.985,156.35 196.729,109.787 253.64,132.551C286.245,145.594 321.489,156.414 355.792,166.215C380.61,173.306 420.466,179.025 440.532,194.075C455.68,205.436 503.597,199.489 525.272,210.326C568.352,231.866 750.356,188.213 782.975,204.522C804.837,215.454 832.511,225.678 859.589,234.704C877.326,240.616 889.986,261.51 906.022,269.528C925.395,279.215 945.37,280.323 965.224,286.941C971.887,289.162 989.058,288.077 994.244,284.619C1005.54,277.088 1043.17,285.977 1055.77,283.458C1080.88,278.436 1218.94,254.768 1243.82,267.207C1261.63,276.11 1322.61,266.123 1335.53,276.493C1348.8,287.145 1509.13,313.64 1538.67,313.64C1568.71,313.64 1634.42,304.928 1660.56,313.64C1718.62,332.994 1818.28,332.289 1871.83,305.514C1906.82,288.017 1959.52,322.032 1994.87,304.353C2032.81,285.387 2041.67,211.992 2049.43,173.18C2054.75,146.57 2073.81,151.15 2068.01,104.692C2060.48,44.528 1983.36,-24.594 1936.83,-58.984C1887.22,-95.655 1774.61,-180.244 1719.76,-197.122C1674.43,-211.069 1628.99,-224.172 1583.94,-240.073C1566.29,-246.305 1545.73,-245.496 1528.22,-252.842C1507.4,-261.577 1485.44,-262.427 1463.22,-269.093C1441.54,-275.596 1421.17,-287.243 1399.37,-293.47C1307.07,-319.841 1205.39,-341.858 1109.17,-345.707C1059.49,-347.694 1010.99,-360.382 961.741,-360.798C887.149,-361.428 808.477,-342.746 735.381,-329.456C660.393,-315.822 587.172,-311.102 512.503,-300.435C456.349,-292.413 400.103,-274.428 346.505,-266.771C330.887,-264.54 311.653,-245.863 297.751,-238.912C243.167,-211.62 163.003,-187.087 127.11,-147.207C126.853,-146.921 123.266,-146.446 122.467,-146.046C115.139,-142.382 92.967,-146.727 87.642,-141.403C75.529,-129.289 45.375,-130.478 34.244,-119.347C29.102,-114.205 22.781,-108.076 16.832,-104.256C-4.434,-90.602 -32.995,-94.434 -55.139,-83.362C-75.092,-73.385 -115.103,-59.383 -129.432,-45.054C-139.222,-35.265 -184.419,-28.008 -199.081,-20.677C-211.245,-14.595 -241.576,28.327 -248.996,43.168C-261.708,68.59 -214.062,74.302 -201.403,83.797C-174.163,104.227 -115.505,115.136 -99.25,131.391C-98.977,131.664 -98.476,131.391 -98.089,131.391C-79.534,131.391 -66.459,137.195 -48.174,137.195L-45.852,137.195C-43.799,143.357 -30.71,142.444 -24.958,145.32C-17.05,149.274 -13.035,161.572 -2.902,161.572" style="fill:rgb(69,176,217);"/>
    <path d="M122.79,-154.322C121.325,-153.963 119.416,-153.465 118.889,-153.201C117.863,-152.688 116.302,-152.647 114.534,-152.53C110.075,-152.234 104.696,-152.426 99.847,-152.279C95.851,-152.157 92.153,-151.791 89.27,-151.01C86.121,-150.157 83.678,-148.752 81.985,-147.06C76.803,-141.877 67.573,-140 58.636,-137.768C46.633,-134.77 34.984,-131.4 28.587,-125.004C23.828,-120.244 18.016,-114.524 12.509,-110.988C2.784,-104.743 -8.668,-102.679 -20.163,-100.728C-33.516,-98.461 -46.951,-96.4 -58.717,-90.517C-79.275,-80.238 -120.325,-65.475 -135.089,-50.711C-138.434,-47.366 -146.811,-44.821 -156.231,-42.025C-173.259,-36.972 -193.601,-32.361 -202.659,-27.833C-206.873,-25.725 -213.16,-19.99 -219.87,-12.249C-233.869,3.901 -250.788,28.863 -256.152,39.59C-259.165,45.617 -259.667,50.932 -258.68,55.606C-257.28,62.237 -252.622,67.882 -245.788,72.394C-239.23,76.723 -230.552,80.121 -222.461,83.135C-215.797,85.618 -209.568,87.673 -206.203,90.197C-189.353,102.834 -160.92,112.111 -137.189,120.992C-123.156,126.243 -110.853,131.102 -104.907,137.047C-102.875,139.079 -96.794,139.267 -96.794,139.267C-96.794,139.267 -97.685,139.391 -98.089,139.391C-80.128,139.391 -67.301,144.829 -49.911,145.177C-48.471,146.531 -46.679,147.65 -44.57,148.52C-41.642,149.727 -37.926,150.452 -34.324,151.1C-32.136,151.494 -29.993,151.747 -28.535,152.476C-27.006,153.241 -25.786,154.589 -24.534,155.963C-23.257,157.365 -22.006,158.841 -20.722,160.256L-27.063,161.98C-31.322,163.141 -33.838,167.543 -32.676,171.803C-31.514,176.062 -27.112,178.578 -22.853,177.416C11.176,168.135 105.45,142.656 178.345,135.98C208.259,133.24 234.43,133.484 250.669,139.979C283.522,153.121 319.031,164.032 353.594,173.907C377.612,180.77 416.313,185.91 435.732,200.475C442.635,205.652 455.376,208.195 469.921,209.548C488.06,211.235 509.378,211.324 521.694,217.482C531.078,222.174 546.466,224.326 565.441,224.428C591.841,224.57 625.629,221.083 658.94,217.336C691.687,213.652 723.966,209.722 748.048,208.927C762.431,208.452 773.593,208.776 779.397,211.678C801.56,222.759 829.608,233.143 857.059,242.293C864.879,244.9 871.442,251.006 877.955,257.147C885.934,264.67 893.783,272.353 902.444,276.684C922.172,286.548 942.477,287.791 962.694,294.53C967.458,296.118 976.72,296.515 984.709,295.507C990.673,294.754 995.914,293.121 998.682,291.276C1000.07,290.349 1002.17,290.06 1004.61,289.805C1008.2,289.427 1012.38,289.464 1016.77,289.673C1031.99,290.4 1049.4,292.89 1057.34,291.303C1074.78,287.815 1147.14,275.253 1197.45,272.268C1210.01,271.523 1221.16,271.368 1229.62,272.159C1234.23,272.59 1237.89,273.188 1240.24,274.362C1245.22,276.849 1253.04,278.294 1262.34,278.88C1274.44,279.642 1289.34,279.176 1302.71,279.308C1311.01,279.39 1318.68,279.685 1324.54,280.782C1327.11,281.263 1329.24,281.705 1330.52,282.732C1333.54,285.155 1343.1,288.727 1356.97,292.206C1406.28,304.574 1514.78,321.64 1538.67,321.64C1556.74,321.64 1587.67,318.503 1615.19,317.874C1632.4,317.481 1648.2,317.953 1658.03,321.229C1717.77,341.143 1820.3,340.219 1875.4,312.669C1891.46,304.64 1911.58,309.096 1931.74,312.865C1955.51,317.309 1979.32,321.073 1998.45,311.509C2015.21,303.131 2027.21,285.435 2035.66,264.115C2047.34,234.695 2052.55,198.407 2057.28,174.749C2059.13,165.489 2063.02,160.629 2066.54,155.474C2073.36,145.514 2079.85,134.933 2075.94,103.699C2072.78,78.386 2058.13,51.452 2038.29,26.065C2009.52,-10.736 1969.97,-44.443 1941.59,-65.418C1891.45,-102.47 1777.54,-187.715 1722.11,-204.768C1676.89,-218.684 1631.55,-231.752 1586.61,-247.616C1569.09,-253.798 1548.68,-252.932 1531.32,-260.219C1510.24,-269.064 1488.02,-270.006 1465.52,-276.756C1443.81,-283.268 1423.4,-294.926 1401.57,-301.163C1308.67,-327.704 1206.33,-349.827 1109.49,-353.701C1059.73,-355.691 1011.14,-368.381 961.809,-368.798C886.726,-369.432 807.526,-350.704 733.95,-337.327C659.063,-323.711 585.94,-319.008 511.372,-308.355C455.217,-300.333 398.972,-282.348 345.374,-274.691C338.158,-273.66 330.193,-269.777 322.302,-264.75C312.299,-258.377 302.315,-250.138 294.173,-246.067C261.41,-229.686 219.436,-214.296 183.342,-195.99C159.213,-183.752 137.683,-170.157 122.79,-154.322ZM0.859,154.512C45.392,142.884 118.02,125.438 176.885,120.046C209.878,117.025 238.702,117.96 256.611,125.124C288.969,138.067 323.947,148.797 357.99,158.523C383.608,165.842 424.619,172.14 445.332,187.675C447.61,189.383 450.936,190.409 454.83,191.281C462.277,192.949 471.537,193.68 481.074,194.421C498.77,195.796 517.285,197.388 528.85,203.171C536.699,207.096 549.655,208.343 565.527,208.429C591.398,208.568 624.507,205.108 657.152,201.436C696.014,197.065 734.232,192.408 759.314,192.809C771.521,193.005 780.94,194.561 786.552,197.367C808.114,208.148 835.414,218.213 862.119,227.114C872.037,230.42 880.671,237.717 888.932,245.506C895.726,251.913 902.224,258.685 909.599,262.373C928.619,271.883 948.263,272.854 967.754,279.351C970.986,280.429 977.284,280.317 982.706,279.633C985.686,279.257 988.424,278.885 989.807,277.963C995.295,274.304 1005.8,273.132 1017.53,273.692C1031.3,274.348 1047.02,277.049 1054.2,275.614C1071.91,272.071 1145.4,259.328 1196.5,256.296C1220.13,254.894 1239.28,255.994 1247.4,260.051C1250.97,261.838 1256.67,262.491 1263.34,262.911C1275.2,263.658 1289.78,263.179 1302.87,263.309C1312.23,263.402 1320.87,263.818 1327.48,265.055C1333.22,266.13 1337.68,267.962 1340.53,270.255C1341.72,271.204 1344.58,272.065 1348.55,273.299C1356.4,275.739 1367.86,278.51 1381.35,281.391C1434.34,292.714 1518.2,305.64 1538.67,305.64C1556.65,305.64 1587.44,302.504 1614.83,301.878C1634.23,301.435 1652.01,302.357 1663.09,306.05C1719.47,324.844 1816.25,324.359 1868.25,298.358C1887.19,288.889 1910.91,292.693 1934.68,297.138C1954.85,300.908 1975.07,305.313 1991.3,297.198C2004.89,290.401 2013.93,275.51 2020.79,258.214C2032.1,229.714 2037,194.528 2041.59,171.611C2043.99,159.583 2048.76,153.136 2053.34,146.44C2058.69,138.621 2063.13,130.202 2060.07,105.684C2057.21,82.866 2043.57,58.803 2025.68,35.919C1997.85,0.312 1959.54,-32.257 1932.08,-52.551C1882.98,-88.84 1771.69,-172.774 1717.4,-189.476C1671.97,-203.455 1626.43,-216.592 1581.28,-232.529C1563.48,-238.811 1542.78,-238.06 1525.13,-245.465C1504.57,-254.09 1482.86,-254.848 1460.92,-261.43C1439.28,-267.923 1418.93,-279.561 1397.17,-285.778C1305.47,-311.979 1204.45,-333.89 1108.85,-337.714C1059.26,-339.697 1010.84,-352.383 961.674,-352.798C887.572,-353.424 809.427,-334.788 736.812,-321.585C661.723,-307.932 588.404,-303.197 513.634,-292.516C457.48,-284.494 401.235,-266.509 347.637,-258.852C340.844,-257.881 333.395,-253.07 326.003,-248.01C317.179,-241.97 308.546,-235.365 301.329,-231.756C268.59,-215.387 226.646,-200.013 190.58,-181.72C167.492,-170.011 146.837,-157.167 133.056,-141.855C132.529,-141.269 131.617,-140.4 130.078,-139.756C129.448,-139.492 126.073,-138.732 125.327,-138.566C120.748,-136.666 112.436,-136.39 104.345,-136.347C101.151,-136.331 98.012,-136.289 95.374,-135.932C94.531,-135.818 93.307,-135.486 92.915,-135.376C85.936,-128.684 74.251,-125.176 62.513,-122.245C53.624,-120.025 44.638,-118.427 39.901,-113.69C34.377,-108.166 27.545,-101.628 21.154,-97.525C9.614,-90.115 -3.847,-87.268 -17.485,-84.953C-29.265,-82.954 -41.183,-81.395 -51.561,-76.206C-63.549,-70.212 -82.767,-62.765 -99.323,-54.669C-109.424,-49.729 -118.522,-44.65 -123.775,-39.398C-128.263,-34.91 -139.042,-30.436 -151.679,-26.686C-167.729,-21.923 -186.966,-17.79 -195.503,-13.522C-198.588,-11.979 -202.868,-7.436 -207.78,-1.769C-220.895,13.361 -236.816,36.696 -241.841,46.746C-245.836,54.736 -238.697,58.62 -231.213,62.262C-218.813,68.295 -203.196,72.452 -196.603,77.397C-180.764,89.276 -153.889,97.659 -131.581,106.007C-116.767,111.55 -103.844,117.252 -96.202,123.412C-78.631,123.782 -65.832,129.195 -48.174,129.195L-45.852,129.195C-42.813,129.195 -40.074,130.912 -38.726,133.561C-38.014,133.817 -36.284,134.419 -35.131,134.664C-30.177,135.715 -24.734,136.488 -21.38,138.165C-17.337,140.186 -13.939,143.743 -10.669,147.488C-9.369,148.978 -8.08,150.49 -6.651,151.747C-5.575,152.692 -4.453,153.572 -2.902,153.572C-1.543,153.572 -0.263,153.912 0.859,154.512Z" style="fill:rgb(69,176,217);"/>
</svg>
