<?xml version="1.0" encoding="UTF-8" standalone="no"?>
<!DOCTYPE svg PUBLIC "-//W3C//DTD SVG 1.1//EN" "http://www.w3.org/Graphics/SVG/1.1/DTD/svg11.dtd">
<svg width="100%" height="100%" viewBox="0 0 1920 1080" version="1.1" xmlns="http://www.w3.org/2000/svg" xmlns:xlink="http://www.w3.org/1999/xlink" xml:space="preserve" xmlns:serif="http://www.serif.com/" style="fill-rule:evenodd;clip-rule:evenodd;stroke-linecap:round;stroke-linejoin:round;stroke-miterlimit:1.5;">
    <g transform="matrix(0.207286,-0.918679,2.80955,-0.500803,-1630.61,883.463)">
        <path d="M558.541,537.678C240.126,537.678 -18.387,748.78 -18.387,1008.8C-18.387,1268.82 240.126,1479.92 558.541,1479.92C463.017,1369.99 385.463,1196.73 385.463,1008.8C385.463,820.865 463.017,647.606 558.541,537.678Z" style="fill:rgb(245,110,105);"/>
    </g>
    <g transform="matrix(0.169036,-1.30894,2.06741,-0.290198,-970.71,893.077)">
        <path d="M717.969,374.002C488.927,374.002 302.975,556.574 302.975,781.451C302.975,1006.33 488.927,1188.9 717.969,1188.9C649.256,1093.83 593.47,943.985 593.47,781.451C593.47,618.917 649.256,469.074 717.969,374.002Z" style="fill:rgb(242,195,82);"/>
    </g>
    <g transform="matrix(0.44305,-1.44088,2.22887,0.473034,-794.857,1575.5)">
        <path d="M1379.15,136.034C1273.98,216.641 1188.6,382.387 1188.6,567.86C1188.6,753.333 1273.98,919.078 1379.15,999.686C1486.71,920.518 1574.04,754.277 1574.04,567.86C1574.04,381.443 1486.71,215.202 1379.15,136.034Z" style="fill:rgb(69,176,217);stroke:rgb(69,176,217);stroke-width:0.5px;"/>
    </g>
</svg>
